<?xml version="1.0" standalone="no"?>
<!DOCTYPE svg PUBLIC "-//W3C//DTD SVG 20010904//EN"
 "http://www.w3.org/TR/2001/REC-SVG-20010904/DTD/svg10.dtd">
<svg version="1.0" xmlns="http://www.w3.org/2000/svg"
 width="512.000000pt" height="512.000000pt" viewBox="0 0 512.000000 512.000000"
 preserveAspectRatio="xMidYMid meet">
<metadata>
Created by potrace 1.14, written by Peter Selinger 2001-2017
</metadata>
<g transform="translate(0.000000,512.000000) scale(0.100000,-0.100000)"
fill="#000000" stroke="none">
<path d="M549 4833 c-55 -34 -59 -52 -59 -285 0 -196 2 -216 20 -246 11 -18
34 -38 50 -44 l30 -10 0 -83 0 -82 -48 -5 c-99 -10 -211 -92 -260 -191 -13
-26 -28 -75 -33 -110 -5 -34 -9 -552 -9 -1151 l0 -1088 -58 -62 c-66 -71 -120
-168 -153 -276 -34 -109 -33 -283 3 -392 65 -197 203 -355 395 -452 40 -19
105 -46 145 -58 l73 -23 1604 -3 c1478 -2 1609 -1 1655 14 143 47 236 168 239
309 2 50 5 65 17 65 8 0 140 -23 292 -50 153 -28 296 -50 318 -50 50 0 91 20
115 56 23 36 46 170 36 214 -18 79 -47 100 -187 131 -54 12 -102 25 -106 29
-5 3 83 23 193 43 112 20 215 45 232 54 45 27 69 78 63 133 -11 102 -28 154
-61 187 -49 49 -79 50 -301 9 -109 -20 -199 -34 -201 -32 -2 2 27 23 64 47
179 116 195 165 103 320 -43 73 -77 99 -130 99 -29 0 -31 2 -25 33 26 154 33
322 14 360 -6 12 -22 31 -36 43 l-24 21 18 54 c28 83 25 274 -6 352 -16 40
-31 62 -51 72 -41 21 -147 45 -200 45 l-46 0 -12 59 c-25 119 -101 219 -207
272 -68 33 -161 52 -217 43 l-38 -7 0 95 c0 90 -17 184 -43 237 -29 58 -128
91 -273 92 -108 0 -163 -12 -260 -56 l-72 -33 -18 42 c-56 126 -151 247 -209
266 -69 23 -86 11 -296 -197 l-197 -195 -42 31 c-120 87 -317 81 -437 -13
l-43 -34 -63 20 c-60 19 -153 20 -199 3 -14 -6 -16 13 -20 177 -3 172 -5 186
-30 240 -51 111 -154 190 -265 206 l-48 7 -3 80 -2 80 32 15 c17 8 41 28 52
43 20 27 21 42 21 245 0 197 -2 220 -19 245 -38 56 -45 57 -413 57 -295 0
-341 -3 -364 -17z m541 -668 l0 -75 -175 0 -175 0 0 75 0 75 175 0 175 0 0
-75z m188 -235 c60 -13 118 -60 143 -114 14 -31 19 -65 19 -138 l0 -98 -72 0
c-83 0 -117 -14 -136 -53 l-13 -27 -129 0 -129 0 -13 27 c-24 49 -43 53 -312
53 l-249 0 5 104 c4 89 8 110 31 149 30 50 81 87 136 98 59 11 665 10 719 -1z
m1597 -281 c29 -36 76 -125 94 -181 11 -35 10 -39 -31 -101 l-43 -66 -61 6
c-82 7 -132 -9 -149 -50 -15 -36 -3 -82 25 -97 10 -6 41 -10 69 -10 49 0 51
-1 51 -28 0 -25 -6 -31 -42 -46 -42 -16 -43 -16 -58 6 -28 44 -95 99 -155 128
-57 27 -61 32 -73 76 l-13 48 173 173 c95 95 176 173 180 173 3 0 18 -14 33
-31z m694 -194 c29 -9 36 -43 36 -165 -1 -116 -7 -132 -90 -257 -36 -55 -44
-61 -82 -67 -24 -3 -67 -18 -95 -33 -29 -15 -56 -28 -60 -28 -4 0 -19 16 -32
35 l-24 35 94 96 c78 80 94 101 94 128 0 41 -31 71 -73 71 -28 0 -46 -14 -132
-100 -55 -55 -104 -100 -108 -100 -5 0 -33 7 -62 16 l-54 15 20 56 c58 171
209 293 384 312 58 6 141 0 184 -14z m-1358 -76 c82 -28 134 -92 149 -186 11
-67 39 -98 98 -109 47 -8 103 -44 137 -88 l26 -34 -30 -47 c-16 -26 -35 -69
-42 -96 l-13 -49 -228 0 c-244 0 -269 -4 -301 -51 l-15 -21 -74 35 c-40 20
-101 41 -136 48 -134 26 -329 -9 -366 -66 -9 -13 -21 -46 -28 -72 -16 -66 -22
-70 -43 -27 -50 107 -15 223 87 289 57 36 71 65 58 120 -15 64 -12 106 14 161
54 116 192 160 308 100 74 -38 102 -35 152 19 69 74 162 102 247 74z m1697
-334 c29 -9 69 -30 89 -48 41 -36 83 -117 83 -163 0 -27 -5 -33 -52 -52 -29
-12 -77 -40 -107 -63 -54 -41 -77 -44 -87 -12 -3 10 -19 47 -36 82 -31 62
-100 131 -148 146 -19 6 -19 7 1 34 33 45 119 87 185 90 11 1 44 -6 72 -14z
m-888 -116 c67 -30 140 -108 140 -149 0 -7 -76 -10 -230 -10 -168 0 -230 3
-230 12 0 6 11 30 24 52 59 100 191 143 296 95z m585 -146 c45 -32 85 -101 85
-149 0 -44 32 -80 77 -89 55 -10 118 -49 143 -89 11 -19 23 -57 27 -85 l6 -51
-54 0 c-57 -1 -78 -11 -97 -47 -14 -26 2 -79 28 -93 11 -6 142 -10 319 -10
l301 0 0 -62 c0 -102 -38 -331 -57 -348 -12 -10 -367 -218 -385 -225 -11 -4
-23 9 -42 49 -31 63 -97 126 -165 158 -36 17 -66 21 -136 22 l-90 1 -440 -169
c-242 -92 -448 -175 -457 -183 -24 -22 -23 -78 2 -103 25 -25 61 -25 129 0 29
12 55 20 56 18 1 -2 10 -45 20 -96 22 -114 42 -144 93 -140 24 2 41 11 55 30
20 27 20 29 3 126 -9 54 -19 107 -22 118 -5 19 23 31 293 135 262 100 305 114
360 114 52 0 68 -4 104 -30 23 -16 50 -46 60 -65 14 -27 91 -418 174 -884 13
-72 -39 -165 -109 -197 -48 -22 -151 -26 -159 -6 -2 6 -15 67 -27 135 -27 142
-43 172 -96 172 -42 0 -74 -29 -74 -68 0 -16 9 -77 20 -137 11 -60 20 -110 20
-112 0 -2 -57 -2 -127 -1 l-126 3 -18 95 c-15 77 -23 99 -44 118 -32 27 -55
28 -88 2 -36 -29 -39 -46 -22 -136 8 -43 15 -80 15 -81 0 -2 -134 -3 -298 -3
l-299 0 -23 125 c-15 81 -30 134 -42 150 -40 51 -129 17 -128 -49 1 -17 9 -75
19 -129 l18 -97 -454 0 c-488 0 -495 1 -552 53 -34 32 -61 95 -61 147 0 54 33
125 71 153 23 16 321 137 340 137 4 0 10 -21 14 -47 11 -73 29 -109 61 -120
36 -13 68 -2 89 31 16 24 16 32 2 108 -8 46 -14 85 -12 87 2 2 97 39 212 82
114 44 218 84 230 90 61 32 36 138 -32 139 -11 0 -67 -18 -124 -40 -104 -39
-121 -41 -121 -15 0 8 -21 56 -47 107 -38 74 -65 110 -133 178 -47 47 -113
101 -147 120 -46 27 -65 44 -78 73 -20 45 -83 89 -160 113 -61 19 -274 30
-331 16 l-42 -9 -5 39 c-8 57 -32 80 -82 76 l-40 -3 -7 50 c-3 28 -7 80 -7
118 l-1 67 1231 0 c783 0 1237 4 1249 10 26 14 42 67 28 93 -16 30 -39 46 -65
47 -13 0 -23 1 -23 3 0 1 11 34 24 74 14 39 30 108 36 153 17 121 3 165 -65
206 l-36 21 33 15 c57 27 62 28 113 23 33 -3 64 -14 90 -32z m783 -127 c14
-14 17 -37 17 -124 0 -90 -4 -115 -24 -159 l-23 -53 -101 0 -101 0 42 43 c49
50 55 85 17 122 -31 32 -66 32 -103 0 -34 -29 -42 -31 -42 -11 0 8 -16 38 -35
67 -39 57 -40 54 30 91 69 37 125 48 218 44 66 -3 93 -8 105 -20z m-2654 -26
c75 -12 169 -57 223 -107 40 -37 45 -47 90 -185 5 -16 -2 -18 -49 -18 -53 0
-55 1 -118 65 -35 35 -76 69 -91 74 -33 11 -68 -4 -88 -41 -14 -24 -14 -30 2
-62 l17 -36 -84 0 -84 0 -11 32 c-19 54 -25 161 -11 216 11 48 14 52 48 57 21
4 44 8 52 10 28 6 45 5 104 -5z m1586 -27 c-1 -47 -32 -160 -61 -218 l-32 -65
-76 0 -77 0 -54 55 c-46 47 -60 55 -91 55 -47 0 -83 -39 -77 -82 4 -25 1 -28
-23 -28 -16 0 -32 6 -36 14 -10 16 -46 36 -67 36 -8 0 -28 -11 -44 -25 -17
-14 -43 -25 -59 -25 -27 0 -29 3 -25 28 6 42 -30 82 -74 82 -29 0 -46 -10 -93
-55 l-58 -55 -72 0 -72 0 -34 73 c-32 71 -55 154 -55 202 l0 25 590 0 c555 0
590 -1 590 -17z m-2044 -154 c22 -23 74 -61 101 -73 1 -1 4 -13 8 -29 l7 -27
-131 0 c-94 0 -131 3 -131 12 0 39 80 148 109 148 4 0 20 -14 37 -31z m-286
-58 c0 -45 -14 -70 -43 -77 -43 -9 -75 -32 -93 -65 -22 -44 -18 -199 12 -376
l5 -33 -81 0 c-98 0 -210 -24 -266 -56 -46 -26 -94 -77 -94 -99 0 -8 -9 -19
-20 -25 -20 -11 -20 -8 -20 359 l0 370 123 4 c287 7 477 6 477 -2z m3611 -732
c11 -23 17 -45 12 -49 -4 -4 -111 -76 -238 -160 -126 -84 -236 -160 -243 -169
-21 -26 -11 -81 19 -104 l27 -19 383 70 c211 39 385 69 387 67 5 -4 22 -79 19
-82 -1 -1 -164 -31 -362 -67 -438 -81 -400 -72 -425 -98 -27 -29 -25 -69 4
-97 20 -19 232 -74 561 -145 29 -6 30 -9 27 -47 -3 -22 -10 -43 -16 -45 -15
-6 -629 104 -637 114 -13 15 -101 526 -93 539 7 10 539 331 551 333 2 0 12
-19 24 -41z m-3615 1 l70 -23 64 22 c109 38 267 38 364 1 16 -6 27 -13 24 -15
-2 -3 -40 -14 -84 -24 -122 -31 -145 -77 -76 -153 l37 -41 -45 7 c-54 8 -154
54 -215 97 -24 17 -55 32 -69 32 -14 0 -55 -20 -91 -43 -67 -44 -179 -90 -217
-90 -20 0 -19 3 11 34 58 60 35 136 -47 151 -128 22 -137 39 -35 62 83 18 223
11 309 -17z m749 -211 c25 -21 64 -60 86 -86 42 -49 109 -175 109 -203 0 -11
-81 -46 -276 -119 -151 -57 -296 -118 -321 -134 -131 -87 -183 -270 -120 -426
l25 -63 -276 4 c-223 4 -289 8 -337 22 -218 62 -390 225 -449 425 -21 71 -21
211 0 282 39 130 139 264 253 337 l53 34 38 -17 37 -17 -4 -66 c-5 -59 -2 -71
18 -96 12 -16 37 -35 55 -42 79 -33 240 -3 367 68 l58 33 93 -45 c147 -73 260
-89 341 -50 68 33 92 104 61 180 -4 10 6 22 31 36 l38 21 37 -20 c21 -11 58
-37 83 -58z"/>
<path d="M2775 3564 c-62 -32 -115 -99 -115 -144 0 -31 44 -70 78 -70 34 0
114 65 138 111 35 69 -33 138 -101 103z"/>
<path d="M1729 3196 c-90 -32 -159 -127 -159 -218 0 -54 61 -92 115 -72 19 8
45 55 45 82 0 28 42 62 77 62 17 0 43 -10 58 -22 38 -30 92 -29 116 1 79 97
-107 219 -252 167z"/>
<path d="M2100 3004 c-47 -20 -107 -80 -121 -121 -13 -41 4 -82 44 -101 38
-18 75 -3 105 43 31 49 65 47 113 -5 42 -46 86 -53 119 -20 34 34 35 66 4 117
-54 87 -174 126 -264 87z"/>
<path d="M2264 2576 c-34 -15 -44 -33 -44 -76 0 -48 39 -70 125 -70 58 0 78 4
99 21 28 22 35 64 16 99 -20 38 -133 53 -196 26z"/>
<path d="M3030 2577 c-36 -18 -53 -58 -40 -93 17 -44 38 -53 123 -54 70 0 81
3 102 25 43 42 28 103 -29 125 -37 14 -126 12 -156 -3z"/>
</g>
</svg>
