<?xml version="1.0" encoding="UTF-8"?>
<!-- Generated by Pixelmator Pro 3.0.1 -->
<svg width="640" height="640" viewBox="0 0 640 640" xmlns="http://www.w3.org/2000/svg" xmlns:xlink="http://www.w3.org/1999/xlink">
    <linearGradient id="linearGradient1" x1="172.56" y1="602.63" x2="172.56" y2="62" gradientUnits="userSpaceOnUse">
        <stop offset="1e-05" stop-color="#808080" stop-opacity="0.25"/>
        <stop offset="0.54" stop-color="#808080" stop-opacity="0.12"/>
        <stop offset="1" stop-color="#808080" stop-opacity="0.1"/>
    </linearGradient>
    <path id="Percorso" fill="url(#linearGradient1)" stroke="none" d="M 279.659973 325.929993 C 277.109985 312.589996 274.26001 299.220001 273.789978 285.649994 C 273.51001 277.649994 274.070007 269.51001 273.039978 261.529999 C 272.530029 257.609985 271.640015 253.76001 270.76001 249.910004 L 267.219971 234.5 C 267.621399 231.545959 267.506348 228.544647 266.880005 225.630005 C 266.525452 224.092987 266.054077 222.585266 265.469971 221.119995 C 268.774536 216.469177 271.498047 211.431824 273.580017 206.119995 C 274.52002 203.720001 275.330017 201.170013 274.960022 198.630005 C 274.23999 193.76001 269.52002 190.549988 265.130005 188.149994 C 262.469971 186.700012 259.669983 185.299988 256.630005 185.070007 C 252.32074 184.896393 248.177795 186.745941 245.429993 190.070007 C 244.691162 186.127594 244.938538 182.06369 246.150024 178.23999 C 243.539978 177.070007 240.910004 175.970001 238.26001 174.899994 C 237.877014 171.444092 237.743317 167.965088 237.859985 164.48999 C 237.920013 160.320007 237.98999 156.109985 238.230011 151.929993 C 252.794189 146.614685 262.517456 132.803528 262.609985 117.299988 C 262.609985 116.869995 262.609985 116.450012 262.609985 116.030029 C 266.524963 108.992249 267.454285 100.678467 265.190002 92.950012 C 262.26001 82.950012 254.599976 74.709961 245.369995 69.619995 C 236.140015 64.530029 225.440002 62.380005 214.850006 62 C 211.295929 61.791992 207.729736 62.016968 204.230011 62.669983 C 200.484253 63.591797 196.854614 64.933655 193.410004 66.670044 C 188.119995 69.109985 182.790009 71.780029 178.829987 75.98999 C 171.959991 83.320007 170.420013 94.089966 171.170013 103.98999 C 172.170013 116.98999 176.51001 129.570007 181.529999 141.670013 C 183.200012 145.670013 184.980011 149.730011 187.730011 153.140015 C 189.859985 155.769989 193.559998 155.929993 196.5 154.089996 C 196.266571 157.284332 196.193146 160.488342 196.279999 163.690002 C 190.850006 163.5 185.559998 164.390015 181.200012 167.450012 C 179.200012 168.880005 177.299988 171.130005 177.73999 173.549988 C 180.497437 173.623322 182.802063 175.670441 183.200012 178.399994 C 183.420013 180.529999 182.350006 182.559998 181.309998 184.399994 C 180.859985 185.220001 180.410004 186.049988 179.950012 186.869995 C 175.649994 191.470001 171.23999 197.230011 170.850006 202.940002 C 170.148376 203.006561 169.450745 203.110046 168.76001 203.25 C 164.859985 203.970001 160.980011 205.299988 157.149994 206.299988 L 129.429993 213.600006 L 122.579987 215.5 L 111.579987 218.399994 C 104.579987 220.23999 97.450012 222.130005 91.23999 225.829987 C 85.029999 229.529999 79.76001 235.339996 78.51001 242.339996 C 77.890015 245.820007 78.269989 249.440002 77.51001 252.890015 C 77.51001 253.049988 77.450012 253.200012 77.410004 253.350006 C 76.77478 255.533875 75.920441 257.647949 74.859985 259.660004 C 68.649994 272.75 64.230011 287.019989 65.059998 301.429993 C 65.570007 310.279999 68.059998 318.910004 70.480011 327.429993 C 73.02002 336.143341 75.526672 344.856659 78 353.570007 C 79.63092 359.8078 81.699371 365.922974 84.190002 371.869995 C 88.456726 381.396667 94.785736 389.856934 102.720001 396.640015 C 104.946533 398.637024 107.436401 400.319397 110.119995 401.640015 C 114.21167 403.409241 118.678802 404.134277 123.119995 403.75 C 124.320007 403.669983 125.5 403.539978 126.670013 403.349976 C 135.26001 401.98999 143.269989 397.849976 150.619995 393.190002 C 153.693329 391.243347 156.693329 389.193359 159.619995 387.039978 C 159.991699 390.399353 160.661011 393.719055 161.619995 396.960022 C 162.269989 399.190002 163.070007 401.47998 162.809998 403.789978 C 162.450012 407.01001 160.109985 409.650024 158.899994 412.669983 C 156.329987 419.049988 158.970001 426.159973 159.399994 433 C 159.809998 439.409973 158.25 445.77002 157 452.080017 C 154.912476 462.603271 153.678467 473.278015 153.309998 484 C 153.298828 488.059448 153.031616 492.114197 152.51001 496.140015 C 151.579987 501.820007 149.399994 507.299988 149.019989 513.039978 C 148.440002 521.97998 152.299988 530.72998 151.950012 539.679993 C 151.540009 550.190002 145.369995 560.400024 147.519989 570.679993 C 147.790009 571.969971 148.519989 573.460022 149.700012 573.789978 L 149.119995 574.320007 C 147.350006 575.960022 145.630005 578.98999 147.640015 580.320007 C 148.102448 580.594849 148.616394 580.771851 149.149994 580.840027 C 152.26001 581.48999 155.390015 582.080017 158.519989 582.630005 C 158.451172 585.52124 158.815186 588.406494 159.600006 591.190002 C 160.170013 591.599976 160.75 591.969971 161.329987 592.320007 C 160.890015 593.5 160.920013 594.640015 161.959991 595.320007 C 162.422424 595.594849 162.936371 595.771851 163.470001 595.840027 C 189.229492 601.154907 215.536835 603.337402 241.820007 602.340027 C 246.52002 602.159973 251.429993 601.820007 255.440002 599.419983 C 259.450012 597.02002 262.159973 591.909973 260.25 587.700012 C 258.559998 583.97998 254.140015 582.369995 250.169983 581.130005 L 245.51001 579.690002 C 246.719666 577.545593 246.874634 574.963623 245.929993 572.690002 C 244.23999 568.969971 239.820007 567.359985 235.850006 566.119995 L 225.119995 562.789978 C 223.707764 562.455261 222.380005 561.832275 221.220001 560.960022 C 220.451416 560.195435 219.742676 559.373047 219.100006 558.5 C 217.551727 556.729858 215.517487 555.453674 213.25 554.830017 C 213.129333 552.556091 213.179504 550.276367 213.399994 548.01001 L 216.399994 511.799988 C 217.070007 503.599976 217.730011 495.23999 215.820007 487.22998 C 215.049988 483.97998 213.820007 480.650024 214.570007 477.390015 C 215.73999 472.070007 221.339996 469.109985 225.160004 465.159973 C 230.920013 459.159973 232.709991 450.630005 234.029999 442.51001 C 239.496124 409.001587 241.213379 374.988586 239.149994 341.099976 C 251.154541 337.715881 263.509705 335.72937 275.969971 335.179993 C 278.090027 335.090027 279.130005 334.090027 279.789978 332.109985 C 280.450012 330.130005 280.049988 327.97998 279.659973 325.929993 Z M 219.809998 327.700012 C 219.880005 327.349976 219.959991 327 220.019989 326.650024 L 220.850006 327.710022 Z"/>
    <path id="path1" fill="#a1616a" stroke="none" d="M 200.309998 144.149994 C 200.049988 147.630005 198.820007 150.970001 198.369995 154.440002 C 197.859985 158.26001 198.309998 162.149994 198.059998 166 C 197.809998 169.850006 196.700012 173.899994 193.769989 176.410004 C 210.799713 177.884827 227.573578 181.513794 243.690002 187.209991 C 238.820007 181.209991 238.690002 172.829987 238.809998 165.130005 C 238.970001 153.73999 239.170013 142.130005 242.890015 131.380005 C 231.794983 128.899963 220.305939 128.750153 209.149994 130.940002 C 206.730011 131.420013 199.399994 131.119995 198.309998 133.380005 C 197.519989 135.040009 200.48999 141.630005 200.309998 144.149994 Z"/>
    <path id="path2" fill="#000000" stroke="none" opacity="0.1" d="M 200.309998 144.149994 C 200.049988 147.630005 198.820007 150.970001 198.369995 154.440002 C 197.859985 158.26001 198.309998 162.149994 198.059998 166 C 197.809998 169.850006 196.700012 173.899994 193.769989 176.410004 C 210.799713 177.884827 227.573578 181.513794 243.690002 187.209991 C 238.820007 181.209991 238.690002 172.829987 238.809998 165.130005 C 238.970001 153.73999 239.170013 142.130005 242.890015 131.380005 C 231.794983 128.899963 220.305939 128.750153 209.149994 130.940002 C 206.730011 131.420013 199.399994 131.119995 198.309998 133.380005 C 197.519989 135.040009 200.48999 141.630005 200.309998 144.149994 Z"/>
    <path id="path3" fill="#46455b" stroke="none" d="M 220.470001 558.549988 C 221.070923 559.437012 221.739594 560.276184 222.470001 561.059998 C 223.596069 561.932922 224.894745 562.556702 226.279999 562.890015 L 236.76001 566.219971 C 240.649994 567.460022 244.969971 569.059998 246.619995 572.780029 C 248.47998 576.97998 245.830017 582.090027 241.909973 584.47998 C 237.98999 586.869995 233.190002 587.219971 228.600006 587.400024 C 202.90036 588.390198 177.176605 586.210449 152.01001 580.909973 C 151.490631 580.834778 150.99115 580.658081 150.540009 580.390015 C 148.540009 579.039978 150.25 576.02002 151.980011 574.390015 C 158.730011 567.98999 166.070007 561.280029 175.26001 559.799988 C 180.089996 559.01001 184.940002 559.330017 189.73999 558.179993 C 193.190002 557.349976 196.450012 555.919983 199.890015 555.070007 C 206.299988 553.5 215.890015 552.940002 220.470001 558.549988 Z"/>
    <path id="path4" fill="#000000" stroke="none" opacity="0.1" d="M 220.470001 558.549988 C 221.070923 559.437012 221.739594 560.276184 222.470001 561.059998 C 223.596069 561.932922 224.894745 562.556702 226.279999 562.890015 L 236.76001 566.219971 C 240.649994 567.460022 244.969971 569.059998 246.619995 572.780029 C 248.47998 576.97998 245.830017 582.090027 241.909973 584.47998 C 237.98999 586.869995 233.190002 587.219971 228.600006 587.400024 C 202.90036 588.390198 177.176605 586.210449 152.01001 580.909973 C 151.490631 580.834778 150.99115 580.658081 150.540009 580.390015 C 148.540009 579.039978 150.25 576.02002 151.980011 574.390015 C 158.730011 567.98999 166.070007 561.280029 175.26001 559.799988 C 180.089996 559.01001 184.940002 559.330017 189.73999 558.179993 C 193.190002 557.349976 196.450012 555.919983 199.890015 555.070007 C 206.299988 553.5 215.890015 552.940002 220.470001 558.549988 Z"/>
    <path id="path5" fill="#bbbdc8" stroke="none" d="M 167.850006 332.369995 C 162.678711 346.016479 162.360931 361.026855 166.950012 374.880005 C 163.459991 374.5 161.950012 379.219971 162.040009 382.73999 C 162.164246 387.640442 162.906769 392.505615 164.25 397.219971 C 164.890015 399.460022 165.670013 401.73999 165.420013 404.039978 C 165.059998 407.26001 162.779999 409.900024 161.589996 412.909973 C 159.089996 419.280029 161.660004 426.380005 162.089996 433.210022 C 162.48999 439.619995 160.959991 445.969971 159.730011 452.27002 C 157.692444 462.781921 156.488678 473.438416 156.130005 484.140015 C 156.122803 488.195923 155.858948 492.247375 155.339996 496.27002 C 154.440002 501.950012 152.339996 507.419983 151.940002 513.150024 C 151.369995 522.070007 155.140015 530.820007 154.799988 539.76001 C 154.399994 550.25 148.359985 560.450012 150.470001 570.76001 C 150.769989 572.210022 151.579987 573.919983 153.070007 573.940002 C 168.149994 574.130005 182.23999 569.940002 197.160004 572.130005 C 198.679993 537.609985 200.160004 502.929993 206.959991 469.039978 C 212.959991 438.869995 223.130005 409.039978 222.179993 378.280029 C 221.630005 360.690002 217.450012 343.440002 214.910004 326.02002 C 198.967041 322.480042 182.284546 324.731079 167.850006 332.369995 Z"/>
    <path id="path6" fill="#000000" stroke="none" opacity="0.1" d="M 167.850006 332.369995 C 162.678711 346.016479 162.360931 361.026855 166.950012 374.880005 C 163.459991 374.5 161.950012 379.219971 162.040009 382.73999 C 162.164246 387.640442 162.906769 392.505615 164.25 397.219971 C 164.890015 399.460022 165.670013 401.73999 165.420013 404.039978 C 165.059998 407.26001 162.779999 409.900024 161.589996 412.909973 C 159.089996 419.280029 161.660004 426.380005 162.089996 433.210022 C 162.48999 439.619995 160.959991 445.969971 159.730011 452.27002 C 157.692444 462.781921 156.488678 473.438416 156.130005 484.140015 C 156.122803 488.195923 155.858948 492.247375 155.339996 496.27002 C 154.440002 501.950012 152.339996 507.419983 151.940002 513.150024 C 151.369995 522.070007 155.140015 530.820007 154.799988 539.76001 C 154.399994 550.25 148.359985 560.450012 150.470001 570.76001 C 150.769989 572.210022 151.579987 573.919983 153.070007 573.940002 C 168.149994 574.130005 182.23999 569.940002 197.160004 572.130005 C 198.679993 537.609985 200.160004 502.929993 206.959991 469.039978 C 212.959991 438.869995 223.130005 409.039978 222.179993 378.280029 C 221.630005 360.690002 217.450012 343.440002 214.910004 326.02002 C 198.967041 322.480042 182.284546 324.731079 167.850006 332.369995 Z"/>
    <path id="path7" fill="#46455b" stroke="none" d="M 234.470001 573.549988 C 235.070923 574.437012 235.739594 575.276184 236.470001 576.059998 C 237.596069 576.932922 238.894745 577.556702 240.279999 577.890015 L 250.76001 581.219971 C 254.650024 582.460022 258.969971 584.059998 260.619995 587.780029 C 262.47998 591.97998 259.830017 597.090027 255.909973 599.47998 C 251.98999 601.869995 247.190002 602.219971 242.599976 602.400024 C 216.90036 603.390198 191.176605 601.210449 166.01001 595.909973 C 165.490631 595.834778 164.99115 595.658081 164.540009 595.390015 C 162.540009 594.039978 164.25 591.02002 165.980011 589.390015 C 172.730011 582.98999 180.070007 576.280029 189.26001 574.799988 C 194.089996 574.01001 198.940002 574.330017 203.73999 573.179993 C 207.190002 572.349976 210.450012 570.919983 213.890015 570.070007 C 220.299988 568.5 229.890015 567.940002 234.470001 573.549988 Z"/>
    <path id="path8" fill="#bbbdc8" stroke="none" d="M 173.049988 333.359985 C 169.190002 338.359985 168.049988 344.960022 168.570007 351.219971 C 169.089996 357.47998 171.200012 363.48999 173.269989 369.419983 C 170.519989 371.950012 171.089996 376.309998 171.450012 380.030029 C 172.76001 393.849976 167.959991 407.640015 168.660004 421.5 C 168.950012 427.330017 170.220001 433.080017 170.519989 438.909973 C 170.850006 445.280029 170.040009 451.650024 169.279999 457.97998 C 164.425293 498.503723 161.754761 539.259277 161.279999 580.070007 C 161.279999 583.830017 161.220001 587.650024 162.279999 591.25 C 169.549988 596.599976 178.679993 597.320007 187.480011 595.320007 C 196.279999 593.320007 204.309998 588.859985 212.200012 584.460022 C 216.522522 582.2229 220.621185 579.577576 224.440002 576.559998 C 225.608215 575.733337 226.472534 574.545776 226.899994 573.179993 C 227.73999 569.179993 222.179993 567.369995 218.98999 564.780029 C 214.350006 561.01001 214.420013 554.030029 214.899994 548.070007 L 217.799988 511.909973 C 218.459991 503.719971 219.100006 495.369995 217.23999 487.369995 C 216.480011 484.130005 215.309998 480.799988 216.01001 477.539978 C 217.149994 472.23999 222.630005 469.280029 226.359985 465.330017 C 232 459.330017 233.73999 450.820007 235.040009 442.719971 C 241.166809 404.292603 242.470215 365.250427 238.920013 326.5 C 231.570007 329.049988 222.859985 327.659973 215.109985 328.26001 C 207.359985 328.859985 199.660004 331.450012 191.809998 331.659973 C 185.269989 331.809998 177.070007 328.200012 173.049988 333.359985 Z"/>
    <path id="path9" fill="#a1616a" stroke="none" d="M 263 118 C 263 138.43454 246.43454 155 226 155 C 205.56546 155 189 138.43454 189 118 C 189 97.56543 205.56546 81 226 81 C 246.43454 81 263 97.56543 263 118 Z"/>
    <path id="path10" fill="#46455b" stroke="none" d="M 246.909973 178.859985 C 235.053741 173.414398 222.690979 169.147247 210 166.119995 C 201.059998 163.98999 190.850006 162.709991 183.380005 168.059998 C 181.380005 169.48999 179.570007 171.73999 180 174.160004 C 182.722382 174.249939 184.97876 176.298889 185.329987 179 C 185.549988 181.119995 184.51001 183.149994 183.48999 185 L 174.859985 201 C 173.206451 203.882294 171.785278 206.891846 170.609985 210 C 168.869995 215.079987 168.48999 220.519989 168.119995 225.880005 L 167.119995 240.399994 C 166.5 249.549988 165.869995 258.73999 166.700012 267.869995 C 167.320007 274.76001 168.76001 281.679993 167.779999 288.529999 C 166.98999 294.040009 164.660004 299.209991 163.350006 304.630005 C 160.890015 314.829987 162.01001 326.01001 157.23999 335.369995 C 159.177185 334.475769 161.36377 334.277954 163.429993 334.809998 C 177.910004 337.47998 189.299988 348.909973 203.359985 353.280029 C 206.910004 348.099976 211.720001 344.280029 215.690002 339.460022 C 218.642517 335.846802 220.597351 331.523376 221.359985 326.919983 C 224.359985 330.919983 226.910004 334.039978 228.700012 338.679993 C 229.018524 339.75946 229.564026 340.758484 230.299988 341.609985 C 232.190002 343.450012 235.299988 342.73999 237.829987 341.969971 C 250.233398 338.228638 263.056519 336.055054 276 335.5 C 278.080017 335.409973 279.090027 334.409973 279.73999 332.429993 C 280.390015 330.450012 280.030029 328.309998 279.640015 326.27002 C 277.150024 312.940002 274.369995 299.589996 273.909973 286.040009 C 273.630005 278.040009 274.179993 269.929993 273.169983 261.950012 C 272.669983 258.040009 271.799988 254.190002 270.940002 250.350006 L 263.799988 218.619995 C 263.400024 216.850006 261.5 215.690002 260.690002 214.059998 C 257.409973 207.420013 251.140015 202.619995 247.900024 195.959991 C 245.452576 190.582031 245.099609 184.484467 246.909973 178.859985 Z"/>
    <path id="path11" fill="#3f3d56" stroke="none" d="M 195 132.809998 C 194.956726 132.292023 195.079285 131.773712 195.350006 131.329987 C 195.745605 130.914581 196.241547 130.608093 196.790009 130.440002 C 199.853516 128.985291 201.5802 125.674744 201.019989 122.329956 L 204.519989 121.599976 L 204.630005 109.410034 C 209.829987 106.530029 216.920013 108.709961 221.809998 105.320007 C 224.559998 103.400024 225.970001 100.140015 227.649994 97.23999 C 229.329987 94.339966 231.829987 91.420044 235.170013 91.179993 C 232.844757 97.094727 233.266052 103.736511 236.320007 109.309998 C 239.821716 107.537781 242.745911 104.804382 244.75 101.429993 L 246.48999 111.429993 C 246.525146 112.046509 246.789001 112.627747 247.22998 113.059998 C 248.140015 113.72998 249.369995 112.890015 250.169983 112.059998 L 254.700012 107.609985 C 256.606506 112.393677 257.913086 117.395081 258.590027 122.5 C 266.030029 115.279968 268.340027 103.679993 265.47998 93.719971 C 262.619995 83.76001 255.130005 75.51001 246.109985 70.420044 C 237.089996 65.330017 226.630005 63.190002 216.279999 62.809998 C 212.805603 62.606689 209.319427 62.831665 205.899994 63.47998 C 202.231506 64.402832 198.681458 65.744995 195.320007 67.47998 C 190.149994 69.910034 184.929993 72.579956 181.070007 76.780029 C 174.350006 84.099976 172.839996 94.859985 173.579987 104.780029 C 174.579987 117.779968 178.799988 130.329987 183.709991 142.410004 C 185.339996 146.410004 187.079987 150.459991 189.769989 153.869995 C 193.820007 159 203.769989 154.73999 202.5 144.600006 C 201.619995 137.359985 195 140.149994 195 132.809998 Z"/>
    <path id="path12" fill="#6c63ff" stroke="none" d="M 209 330.900024 C 196.520355 356.398865 177.356293 378.034058 153.549988 393.5 C 146.359985 398.150024 138.549988 402.289978 130.140015 403.650024 C 128.98999 403.840027 127.839996 403.969971 126.670013 404.049988 C 122.333099 404.409119 117.975647 403.669678 114 401.900024 C 111.36795 400.574646 108.93158 398.89209 106.76001 396.900024 C 98.978058 390.088867 92.794464 381.644897 88.649994 372.169983 C 86.213959 366.223572 84.192474 360.115601 82.600006 353.890015 C 80.146667 345.18335 77.700012 336.473358 75.26001 327.76001 C 72.869995 319.23999 70.459991 310.619995 69.959991 301.76001 C 69.149994 287.369995 73.470001 273.119995 79.540009 260.049988 C 80.575256 258.037048 81.409302 255.926819 82.029999 253.75 C 82.029999 253.600006 82.100006 253.450012 82.130005 253.290009 C 82.850006 249.839996 82.480011 246.230011 83.130005 242.75 C 84.350006 235.75 89.51001 229.950012 95.570007 226.26001 C 101.630005 222.570007 108.570007 220.679993 115.459991 218.839996 L 126.190002 215.950012 L 132.850006 214.160004 L 159.940002 206.869995 C 163.690002 205.869995 167.480011 204.540009 171.290009 203.869995 C 175.540009 203.070007 175.51001 203.48999 175.839996 207.649994 C 176.450012 215.190002 176.25 222.600006 177.839996 230.070007 C 179.350006 237.200012 182.01001 244.070007 184.01001 251.070007 C 189.059998 268.73999 189.899994 287.339996 193.880005 305.290009 C 194.790009 309.380005 196.049988 313.73999 199.339996 316.290009 C 203.109985 319.290009 209.459991 320.029999 210.459991 324.72998 C 210.829987 326.820007 209.899994 328.960022 209 330.900024 Z"/>
    <path id="path13" fill="#000000" stroke="none" opacity="0.1" d="M 130.140015 403.609985 C 128.98999 403.799988 127.839996 403.929993 126.670013 404.01001 C 122.336487 404.381653 117.979156 403.656006 114 401.900024 C 111.36795 400.574646 108.93158 398.89209 106.76001 396.900024 C 98.978058 390.088867 92.794464 381.644897 88.649994 372.169983 C 86.213959 366.223572 84.192474 360.115601 82.600006 353.890015 C 80.146667 345.18335 77.700012 336.473358 75.26001 327.76001 C 72.869995 319.23999 70.459991 310.619995 69.959991 301.76001 C 69.149994 287.369995 73.470001 273.119995 79.540009 260.049988 C 80.575256 258.037048 81.409302 255.926819 82.029999 253.75 C 82.029999 253.600006 82.100006 253.450012 82.130005 253.290009 C 98.450012 256.160004 118.029999 287.380005 128.130005 328.289978 C 135.570007 358.880005 135.890015 387.049988 130.140015 403.609985 Z"/>
    <path id="path14" fill="#000000" stroke="none" opacity="0.1" d="M 159.640015 295.970001 L 156.910004 296.440002 C 154.100006 289.059998 151.299988 281.670013 148.01001 274.48999 C 146.299988 270.73999 144.450012 267.040009 143.01001 263.170013 C 137.609985 248.309998 138.529999 230.679993 128.519989 218.440002 C 127.805481 217.530853 126.990295 216.705597 126.089996 215.980011 L 132.75 214.190002 C 138.582092 223.411041 142.69519 233.612457 144.890015 244.299988 C 145.970001 249.519989 146.579987 254.859985 148.339996 259.880005 C 149.837036 263.687744 151.549805 267.407104 153.470001 271.019989 C 157.269989 278.809998 160.130005 287.320007 159.640015 295.970001 Z"/>
    <path id="path15" fill="#6c63ff" stroke="none" d="M 186.220001 183.299988 C 193.410004 177.140015 203.220001 173.76001 212.529999 175.299988 C 218.01001 176.190002 223.100006 178.660004 228.01001 181.299988 C 237.579987 186.380005 247.01001 192.230011 253.909973 200.579987 C 258.047485 205.846344 261.48291 211.628082 264.130005 217.779999 C 265.428101 220.467896 266.433899 223.287384 267.130005 226.190002 C 269.570007 237.48999 263.580017 248.720001 257.809998 258.73999 L 246.710022 278 C 241.609985 286.850006 236.470001 295.76001 229.829987 303.529999 C 226.769989 307.109985 223.410004 310.420013 220.059998 313.730011 L 205.350006 328.25 C 205.085419 328.561951 204.739136 328.793945 204.350006 328.919983 C 203.700073 328.954712 203.067627 328.702454 202.619995 328.22998 L 197.76001 324.359985 C 202.23642 321.267273 206.396606 317.740143 210.179993 313.829987 C 216.540009 307.25 221.769989 299.679993 226.970001 292.140015 L 243.150024 268.679993 C 247.880005 261.809998 252.820007 254.25 252.289978 245.929993 C 252.039978 241.929993 250.539978 238.170013 248.969971 234.5 C 246.189972 227.973328 243.169983 221.549988 239.910004 215.230011 C 236.25 208.140015 232.25 201.140015 226.980011 195.149994 C 221.709991 189.160004 215.049988 184.149994 207.380005 181.980011 C 205.092407 181.232605 202.667847 181.000397 200.279999 181.299988 C 195.019989 182.170013 191.279999 186.690002 187.950012 190.890015 L 177.809998 203.890015 C 175.5 206.839996 173.380005 210.26001 173.23999 204.660004 C 173 196.670013 181.079987 188.440002 186.220001 183.299988 Z"/>
    <path id="path16" fill="#a1616a" stroke="none" d="M 189.359985 271 C 191.359985 278.700012 194.309998 287.440002 201.720001 290.359985 C 206.970001 292.429993 213.119995 290.75 217.660004 287.359985 C 222.200012 283.970001 225.420013 279.190002 228.380005 274.359985 C 230.885345 270.019562 233.646912 265.832153 236.649994 261.820007 C 242.580017 254.380005 250.650024 248.480011 254.650024 239.820007 C 255.830017 237.23999 256.650024 234.480011 257.98999 232 C 259.421997 229.71344 261.040833 227.549377 262.830017 225.529999 C 267.434204 219.825684 271.115601 213.434723 273.73999 206.589996 C 274.659973 204.200012 275.450012 201.640015 275.090027 199.109985 C 274.380005 194.23999 269.77002 191.040009 265.47998 188.649994 C 262.869995 187.200012 260.140015 185.790009 257.169983 185.570007 C 252.830017 185.230011 248.559998 187.570007 245.890015 191 C 243.319641 194.54776 241.883362 198.790436 241.77002 203.170013 C 241.469971 208.5 242.51001 214.040009 240.769989 219.079987 C 239.849792 221.431244 238.578705 223.629517 237 225.600006 C 231.382843 233.115082 224.430328 239.532013 216.48999 244.529999 C 216.272278 240.747437 215.451965 237.023895 214.059998 233.5 C 213.299988 231.559998 198.399994 233.5 196.459991 233.820007 C 192.619995 234.380005 185.179993 234.820007 182.76001 238.480011 C 180.339996 242.140015 183.339996 248.290009 184.320007 251.980011 Z"/>
    <path id="path17" fill="#46455b" stroke="none" d="M 189 186.970001 C 186.786499 188.798706 184.726288 190.805389 182.839996 192.970001 C 178.399994 198.320007 176.230011 205.279999 175.670013 212.209991 C 175.109985 219.140015 176.059998 226.100006 177.25 232.950012 C 178.329987 239.09668 179.606659 245.200012 181.079987 251.26001 C 181.48999 246.690002 185.190002 242.910004 189.480011 241.26001 C 193.769989 239.609985 198.480011 239.790009 203.049988 240.459991 C 208.931946 241.331238 214.670013 242.989441 220.109985 245.390015 L 222.220001 215.820007 C 222.664185 211.830933 222.640686 207.803619 222.149994 203.820007 C 220.805695 196.342041 216.310516 189.803284 209.809998 185.869995 C 201.790009 180.98999 196.200012 180.679993 189 186.970001 Z"/>
    <linearGradient id="linearGradient2" x1="441" y1="599.04" x2="441" y2="59" gradientUnits="userSpaceOnUse">
        <stop offset="1e-05" stop-color="#808080" stop-opacity="0.25"/>
        <stop offset="0.54" stop-color="#808080" stop-opacity="0.12"/>
        <stop offset="1" stop-color="#808080" stop-opacity="0.1"/>
    </linearGradient>
    <path id="path18" fill="url(#linearGradient2)" stroke="none" d="M 566.780029 330.859985 C 565.830994 322.835327 563.496338 315.036224 559.880005 307.809998 C 557.669983 303.410004 554.97998 299.200012 553.590027 294.48999 C 552.460022 290.660004 552.23999 286.630005 551.340027 282.73999 C 550.440002 278.850006 548.849976 275.130005 547.570007 271.329987 C 538.52002 244.329987 545.320007 214.790009 542.400024 186.48999 C 541.309998 176.049988 538.109985 164.600006 529.059998 159.160004 C 523.679993 155.929993 517.219971 155.429993 510.890015 155.160004 L 508 155.029999 L 503.359985 154.799988 C 496.640015 154.470001 489.900024 154.220001 483.359985 155.630005 C 475.359985 157.380005 465.880005 163.01001 463.359985 171.179993 C 461.97998 170.470001 460.590027 169.839996 459.309998 169.25 C 454.158752 166.964844 448.759094 165.286896 443.219971 164.25 C 447.971436 163.053131 452.558777 161.279999 456.880005 158.970001 C 466.880005 153.149994 469.200012 136.149994 471.23999 124.779968 C 473.280029 113.409973 471.419983 101.660034 468.030029 90.609985 C 466.910278 86.688965 465.385437 82.895203 463.47998 79.290039 C 458.158997 69.690674 449.083008 62.73877 438.429016 60.101807 C 427.775024 57.464905 416.504211 59.380798 407.320007 65.390015 C 397.98999 71.5 389.320007 80.390015 382.200012 88.97998 C 381.200012 90.160034 377.02002 94.339966 378.409973 96.099976 C 379.190002 97.099976 381.76001 96.299988 384.460022 95.099976 C 382.382874 99.792419 381.313171 104.868408 381.320007 110 C 381.332031 123.113098 388.261841 135.246887 399.549988 141.920013 L 400.549988 151.119995 L 400.549988 151.190002 C 400.659973 154.26001 400.710022 157.329987 400.75 160.390015 C 400.75 162.540009 400.75 164.73999 400.690002 166.940002 C 396.540588 171.634979 391.459534 175.415131 385.77002 178.040009 C 390.469971 178.820007 394.950012 177.720001 399.309998 175.839996 C 398.601257 178.296295 397.41156 180.587311 395.809998 182.579987 C 397.01001 182.160004 398.210022 181.779999 399.409973 181.380005 C 398.782837 182.387604 398.224854 183.436707 397.73999 184.519989 C 397.000183 186.2323 396.459961 188.024109 396.130005 189.859985 C 393.58374 193.580627 391.378113 197.523254 389.539978 201.640015 L 389.539978 201.640015 C 388.700012 203.51001 387.950012 205.410004 387.27002 207.339996 L 387.27002 207.470001 C 386.603333 209.390015 386.013367 211.33667 385.5 213.309998 L 385.5 213.309998 C 385.26001 214.256683 385.040039 215.206665 384.840027 216.160004 C 384.840027 216.230011 384.840027 216.299988 384.840027 216.369995 C 384.440002 218.299988 384.109985 220.23999 383.840027 222.200012 C 383.840027 222.329987 383.840027 222.459991 383.840027 222.600006 C 383.72998 223.51001 383.630005 224.429993 383.559998 225.350006 C 383.559998 225.350006 383.559998 225.440002 383.559998 225.48999 C 383.47998 226.48999 383.419983 227.440002 383.390015 228.420013 C 383.390015 228.549988 383.390015 228.670013 383.390015 228.799988 C 383.390015 229.630005 383.390015 230.470001 383.390015 231.299988 L 383.390015 231.869995 C 383.390015 233.75 383.51001 235.640015 383.690002 237.529999 C 383.690002 237.76001 383.690002 238 383.76001 238.230011 C 383.840027 239 383.929993 239.769989 384.039978 240.549988 C 384.039978 240.730011 384.039978 240.910004 384.109985 241.079987 C 384.23999 242.01001 384.390015 242.929993 384.559998 243.850006 C 384.559998 244.049988 384.650024 244.26001 384.690002 244.459991 C 384.830017 245.200012 384.97998 245.929993 385.150024 246.670013 L 385.330017 247.429993 C 385.549988 248.350006 385.780029 249.26001 386.039978 250.179993 C 386.190002 250.700012 386.340027 251.179993 386.5 251.730011 C 386.977478 253.625549 387.311768 255.554321 387.5 257.5 L 382.030029 257.679993 C 370.323303 258.013336 358.626648 258.543335 346.940002 259.269989 C 345.47998 253.640015 340.5 250.390015 334.22998 249.619995 C 333.234497 249.500092 332.232727 249.439972 331.22998 249.440002 L 331.22998 249.440002 C 332.311523 248.528992 333.272583 247.483917 334.090027 246.329987 C 335.177979 244.833313 335.95343 243.132843 336.369995 241.329987 C 334.758423 242.247131 333.349915 243.482117 332.22998 244.959991 C 331.859985 245.459991 331.530029 245.959991 331.22998 246.420013 L 331.22998 243.420013 C 331.232727 243.29187 331.183044 243.168182 331.092468 243.077545 C 331.001831 242.986938 330.878113 242.937256 330.75 242.940002 L 329.75 242.940002 C 329.621887 242.937256 329.498169 242.986938 329.407532 243.077545 C 329.316956 243.168182 329.267273 243.29187 329.27002 243.420013 L 329.27002 249.529999 L 329.070007 249.529999 L 328.72998 249.529999 C 328.070007 249.589996 327.429993 249.670013 326.799988 249.790009 C 319.98999 251.059998 315 255.429993 315 262.790009 C 315.003845 267.480438 317.065613 271.932953 320.640015 274.970001 C 320.93335 277.262238 321.452515 279.519897 322.190002 281.709991 C 322.880005 283.880005 323.780029 286.23999 325.799988 287.320007 C 327.034241 287.880005 328.387451 288.127289 329.73999 288.040009 C 340.859985 288.040009 351.380005 282.910004 362.450012 282.040009 C 369.289978 281.48999 376.159973 282.549988 383.02002 282.339996 C 384.02002 282.339996 385.02002 282.23999 386.02002 282.160004 C 376.640015 328.609985 365.289978 375.650024 371.219971 422.570007 C 371.609985 425.690002 372.219971 429.070007 374.549988 431.190002 C 377.640015 434.01001 382.400024 433.549988 386.549988 433.190002 C 397.938416 432.151306 409.420593 433.067871 420.5 435.900024 C 422.057983 436.330566 423.695374 436.388794 425.280029 436.070007 C 425.618713 435.993042 425.952637 435.896179 426.280029 435.780029 L 426.559998 435.669983 C 426.77002 435.590027 426.969971 435.51001 427.159973 435.419983 L 427.450012 435.27002 L 427.940002 434.969971 C 428.02002 434.909973 428.109985 434.859985 428.179993 434.799988 C 428.353943 434.680237 428.517822 434.546448 428.669983 434.400024 L 428.809998 434.280029 C 428.997192 434.096558 429.174133 433.902954 429.340027 433.700012 L 429.460022 433.52002 C 429.575745 433.36969 429.682556 433.212769 429.780029 433.049988 C 429.830017 432.969971 429.880005 432.890015 429.919983 432.809998 C 429.960022 432.72998 430.080017 432.51001 430.150024 432.359985 C 430.219971 432.210022 430.22998 432.179993 430.26001 432.090027 C 430.289978 432 430.390015 431.76001 430.450012 431.590027 C 430.51001 431.419983 430.450012 431.429993 430.530029 431.340027 C 430.609985 431.25 430.669983 430.840027 430.719971 430.590027 L 430.719971 430.429993 C 430.719971 430.219971 430.799988 430 430.830017 429.789978 C 430.859985 429.580017 430.830017 429.570007 430.830017 429.460022 C 430.830017 429.349976 430.830017 429.130005 430.830017 428.969971 L 430.830017 428.609985 C 430.830017 428.450012 430.830017 428.289978 430.830017 428.130005 L 430.830017 427.23999 C 430.830017 427.140015 430.830017 427.030029 430.830017 426.919983 L 430.830017 426.919983 C 430.830017 426.030029 430.72998 425.130005 430.640015 424.27002 C 431.354736 424.477722 432.083191 424.634766 432.820007 424.73999 L 432.820007 424.73999 C 433.507813 424.849243 434.203674 424.899414 434.900024 424.890015 L 435 424.890015 C 435.330017 424.890015 435.659973 424.890015 436 424.809998 L 436 424.809998 C 436.289673 424.765442 436.576782 424.705322 436.859985 424.630005 L 436.98999 424.630005 C 437.251709 424.552612 437.506042 424.452271 437.75 424.330017 L 437.869995 424.26001 C 438.078003 424.144165 438.275391 424.010315 438.460022 423.859985 L 438.549988 423.789978 C 438.737488 423.615662 438.905151 423.421143 439.049988 423.210022 L 439.140015 423.059998 C 439.288269 422.818909 439.405823 422.560242 439.48999 422.289978 C 440.059998 420.359985 438.76001 418.179993 440.840027 416.409973 C 442.840027 422.820007 444.840027 429.23999 445.169983 435.869995 C 445.280029 438.289978 445.169983 440.869995 446.590027 442.869995 C 447.514099 443.961731 448.516785 444.984436 449.590027 445.929993 C 452.650024 449.23999 452.719971 454.22998 452.51001 458.710022 C 452.419983 460.52002 452.320007 462.330017 452.190002 464.140015 C 450.537842 488.293579 445.626709 512.112793 437.590027 534.950012 C 436.806702 537.379822 435.781616 539.724915 434.530029 541.950012 C 432.500488 545.099548 429.962708 547.890747 427.02002 550.210022 C 422.850708 553.750732 418.384155 556.925781 413.669983 559.700012 C 411.261963 560.973206 408.987305 562.48407 406.880005 564.210022 C 406.799988 563.97998 406.710022 563.76001 406.650024 563.52002 C 406.539978 563.059998 406.390015 562.52002 405.940002 562.349976 C 405.598511 562.272583 405.240295 562.329895 404.940002 562.51001 C 400.25 564.570007 395.559998 566.630005 391.049988 569.039978 C 388.773254 570.077515 386.767578 571.627991 385.190002 573.570007 C 383.75 575.570007 383.320007 578.570007 384.809998 580.570007 C 386.119995 582.320007 388.469971 582.900024 390.640015 583.289978 C 393.419983 583.780029 396.210022 584.130005 399 584.390015 C 397.566223 585.229919 396.312256 586.344543 395.309998 587.669983 C 393.869995 589.669983 393.440002 592.669983 394.929993 594.669983 C 396.23999 596.419983 398.590027 597 400.76001 597.390015 C 418.48999 600.52002 436.669983 598.390015 454.669983 597.859985 C 460.52002 597.669983 466.5 597.630005 472.039978 595.72998 C 473.13269 595.406982 474.151733 594.873657 475.039978 594.159973 C 477.559998 591.940002 477.309998 588.039978 476.869995 584.72998 L 475.039978 571.210022 C 474.77002 571.210022 474.51001 571.299988 474.25 571.359985 C 475.783142 558.659241 478.53241 546.135132 482.460022 533.960022 C 488.559998 515.01001 497.640015 496.340027 497.52002 476.51001 C 497.52002 476.030029 497.52002 475.51001 497.52002 475.070007 C 497.349976 468.859985 496.23999 462.719971 495.52002 456.539978 C 494.390015 446.200012 494.52002 435.77002 494.590027 425.380005 C 494.502625 421.305908 494.78717 417.232361 495.440002 413.210022 C 495.440002 413.070007 495.5 412.940002 495.530029 412.799988 L 512.140015 412.359985 C 513.980469 412.453064 515.816895 412.110474 517.5 411.359985 C 519.148621 410.636536 519.985596 408.785706 519.440002 407.070007 C 526.52002 410.280029 535.98999 405.909973 538.080017 398.469971 C 538.22522 397.946655 538.342041 397.415894 538.429993 396.880005 C 538.425171 396.840149 538.425171 396.799866 538.429993 396.76001 C 538.5 396.26001 538.549988 395.76001 538.570007 395.27002 C 538.570007 395.190002 538.570007 395.099976 538.570007 395.02002 L 538.570007 395.02002 C 538.673523 391.585327 538.141296 388.161133 537 384.919983 C 533.599976 375.289978 528.200012 366.52002 523.119995 357.650024 C 520.5 353.059998 517.960022 348.409973 515.48999 343.73999 L 517.659973 346.530029 C 518.42157 347.667847 519.421326 348.626648 520.590027 349.340027 C 524.640015 351.429993 528.880005 347.219971 533 345.280029 C 538.469971 342.700012 544.869995 344.219971 550.909973 344.650024 C 556.950012 345.080017 564.22998 343.52002 566.390015 337.919983 C 567.090088 335.632996 567.223938 333.210144 566.780029 330.859985 Z M 462.650024 180.570007 C 462.650024 182.709991 462.789978 184.880005 462.960022 187.059998 C 460.930298 183.742706 458.586121 180.628357 455.960022 177.76001 Z"/>
    <path id="path19" fill="#99d55c" stroke="none" d="M 332 246.76001 C 333.107117 245.294281 334.498108 244.066528 336.090027 243.149994 C 335.684082 244.95108 334.918762 246.651703 333.840027 248.149994 C 332.099976 250.519989 330.27002 252.149994 329.76001 251.76001 C 329.25 251.369995 330.23999 249.130005 332 246.76001 Z"/>
    <path id="path20" fill="#000000" stroke="none" opacity="0.1" d="M 332.219971 246.940002 C 333.028992 245.850739 334.049316 244.935852 335.219971 244.25 C 334.915588 245.582336 334.347778 246.840332 333.549988 247.950012 C 332.25 249.709991 330.890015 250.950012 330.549988 250.640015 C 330.210022 250.329987 330.919983 248.700012 332.219971 246.940002 Z"/>
    <path id="path21" fill="#f6987e" stroke="none" d="M 329.570007 244.769989 L 330.570007 244.769989 C 330.835083 244.769989 331.049988 244.984894 331.049988 245.25 L 331.049988 256.579987 L 331.049988 256.579987 L 329.150024 256.579987 L 329.150024 256.579987 L 329.150024 245.25 C 329.148071 245.006683 329.328552 244.800415 329.570007 244.769989 Z"/>
    <path id="path22" fill="#fc4a4a" stroke="none" d="M 347 264.579987 C 347 273.416565 339.836548 280.579987 331 280.579987 C 322.163452 280.579987 315 273.416565 315 264.579987 C 315 257.25 319.929993 252.910004 326.659973 251.640015 C 328.091492 251.375916 329.544373 251.245361 331 251.25 C 332.002747 251.248657 333.004639 251.308777 334 251.429993 C 341.400024 252.350006 347 256.769989 347 264.579987 Z"/>
    <path id="path23" fill="#000000" stroke="none" opacity="0.1" d="M 334 251.429993 C 333.710022 251.980011 332.140015 252.429993 330.23999 252.429993 C 328.999939 252.52063 327.759399 252.260742 326.659973 251.679993 C 328.091492 251.415924 329.544373 251.28537 331 251.290009 C 332.001892 251.27536 333.003784 251.322144 334 251.429993 Z"/>
    <path id="path24" fill="#000000" stroke="none" opacity="0.1" d="M 333.669983 280.200012 C 324.833435 280.200012 317.669983 273.03656 317.669983 264.200012 C 317.669983 257 322.419983 252.690002 328.960022 251.339996 C 328.188538 251.398682 327.420715 251.49881 326.659973 251.640015 C 319.929993 252.910004 315 257.25 315 264.579987 C 315 273.416565 322.163452 280.579987 331 280.579987 C 332.208496 280.582123 333.413147 280.44455 334.590027 280.170013 C 334.280029 280.190002 334 280.200012 333.669983 280.200012 Z"/>
    <path id="path25" fill="#fda8a8" stroke="none" d="M 404.200012 576.349976 C 406.409973 578.349976 409.789978 578.299988 412.789978 578.080017 L 426.460022 577.080017 C 437.320007 576.280029 448.549988 575.380005 458.130005 570.210022 C 459.143921 569.746277 460.042236 569.063171 460.76001 568.210022 C 461.521545 566.901917 461.91864 565.413635 461.909973 563.900024 C 463.203979 549.088318 466.148865 534.46759 470.690002 520.309998 C 476.690002 501.460022 485.690002 482.880005 485.570007 463.150024 C 485.570007 462.669983 485.570007 462.150024 485.570007 461.719971 C 485.400024 455.539978 484.309998 449.429993 483.640015 443.280029 C 482.530029 432.98999 482.640015 422.619995 482.719971 412.280029 C 482.63446 408.226257 482.915588 404.173096 483.559998 400.169983 C 484.190002 396.919983 486.559998 393.659973 485.109985 390.799988 C 482.299988 385.25 472.109985 383.210022 466.630005 383.01001 C 459.25 382.75 451.98999 384.679993 444.859985 386.599976 C 442.690002 387.190002 440.419983 387.820007 438.780029 389.349976 C 436.580017 391.409973 435.950012 394.640015 435.869995 397.650024 C 435.48999 411 443.179993 423.419983 443.789978 436.75 C 443.900024 439.150024 443.789978 441.75 445.190002 443.75 C 446.113525 444.839111 447.116272 445.858582 448.190002 446.799988 C 451.190002 450.090027 451.280029 455.049988 451.070007 459.51001 C 450.97998 461.309998 450.880005 463.109985 450.76001 464.909973 C 449.126465 488.933533 444.27301 512.628784 436.330017 535.359985 C 435.56427 537.786926 434.559387 540.131775 433.330017 542.359985 C 431.323608 545.487976 428.816895 548.264954 425.909973 550.580017 C 421.791016 554.097595 417.378174 557.255798 412.719971 560.02002 C 409.609985 561.859985 406.289978 563.619995 404.159973 566.539978 C 402.030029 569.460022 401.559998 573.890015 404.200012 576.349976 Z"/>
    <path id="path26" fill="#000000" stroke="none" opacity="0.1" d="M 404.200012 576.349976 C 406.409973 578.349976 409.789978 578.299988 412.789978 578.080017 L 426.460022 577.080017 C 437.320007 576.280029 448.549988 575.380005 458.130005 570.210022 C 459.143921 569.746277 460.042236 569.063171 460.76001 568.210022 C 461.521545 566.901917 461.91864 565.413635 461.909973 563.900024 C 463.203979 549.088318 466.148865 534.46759 470.690002 520.309998 C 476.690002 501.460022 485.690002 482.880005 485.570007 463.150024 C 485.570007 462.669983 485.570007 462.150024 485.570007 461.719971 C 485.400024 455.539978 484.309998 449.429993 483.640015 443.280029 C 482.530029 432.98999 482.640015 422.619995 482.719971 412.280029 C 482.63446 408.226257 482.915588 404.173096 483.559998 400.169983 C 484.190002 396.919983 486.559998 393.659973 485.109985 390.799988 C 482.299988 385.25 472.109985 383.210022 466.630005 383.01001 C 459.25 382.75 451.98999 384.679993 444.859985 386.599976 C 442.690002 387.190002 440.419983 387.820007 438.780029 389.349976 C 436.580017 391.409973 435.950012 394.640015 435.869995 397.650024 C 435.48999 411 443.179993 423.419983 443.789978 436.75 C 443.900024 439.150024 443.789978 441.75 445.190002 443.75 C 446.113525 444.839111 447.116272 445.858582 448.190002 446.799988 C 451.190002 450.090027 451.280029 455.049988 451.070007 459.51001 C 450.97998 461.309998 450.880005 463.109985 450.76001 464.909973 C 449.126465 488.933533 444.27301 512.628784 436.330017 535.359985 C 435.56427 537.786926 434.559387 540.131775 433.330017 542.359985 C 431.323608 545.487976 428.816895 548.264954 425.909973 550.580017 C 421.791016 554.097595 417.378174 557.255798 412.719971 560.02002 C 409.609985 561.859985 406.289978 563.619995 404.159973 566.539978 C 402.030029 569.460022 401.559998 573.890015 404.200012 576.349976 Z"/>
    <path id="path27" fill="#eeeff3" stroke="none" d="M 404.200012 576.349976 C 406.409973 578.349976 409.789978 578.299988 412.789978 578.080017 L 426.460022 577.080017 C 437.320007 576.280029 448.549988 575.380005 458.130005 570.210022 C 459.143921 569.746277 460.042236 569.063171 460.76001 568.210022 C 461.521545 566.901917 461.91864 565.413635 461.909973 563.900024 C 463.203979 549.088318 466.148865 534.46759 470.690002 520.309998 C 476.690002 501.460022 485.690002 482.880005 485.570007 463.150024 C 474.012207 464.427979 462.387451 465.00238 450.76001 464.869995 C 449.126465 488.893555 444.27301 512.588806 436.330017 535.320007 C 435.56427 537.746948 434.559387 540.091797 433.330017 542.320007 C 431.323608 545.447937 428.816895 548.224976 425.909973 550.539978 C 421.791016 554.057617 417.378174 557.21582 412.719971 559.97998 C 409.609985 561.820007 406.289978 563.580017 404.159973 566.5 C 402.030029 569.419983 401.559998 573.890015 404.200012 576.349976 Z"/>
    <path id="path28" fill="#000000" stroke="none" opacity="0.1" d="M 404.200012 576.349976 C 406.409973 578.349976 409.789978 578.299988 412.789978 578.080017 L 426.460022 577.080017 C 437.320007 576.280029 448.549988 575.380005 458.130005 570.210022 C 459.143921 569.746277 460.042236 569.063171 460.76001 568.210022 C 461.521545 566.901917 461.91864 565.413635 461.909973 563.900024 C 463.203979 549.088318 466.148865 534.46759 470.690002 520.309998 C 476.690002 501.460022 485.690002 482.880005 485.570007 463.150024 C 474.012207 464.427979 462.387451 465.00238 450.76001 464.869995 C 449.126465 488.893555 444.27301 512.588806 436.330017 535.320007 C 435.56427 537.746948 434.559387 540.091797 433.330017 542.320007 C 431.323608 545.447937 428.816895 548.224976 425.909973 550.539978 C 421.791016 554.057617 417.378174 557.21582 412.719971 559.97998 C 409.609985 561.820007 406.289978 563.580017 404.159973 566.5 C 402.030029 569.419983 401.559998 573.890015 404.200012 576.349976 Z"/>
    <path id="path29" fill="#bbbdc8" stroke="none" d="M 434.400024 572.130005 C 437.684326 570.952942 440.840515 569.44519 443.820007 567.630005 L 458.890015 559.130005 C 460.251526 558.24823 461.768555 557.633972 463.359985 557.320007 L 465.159973 570.77002 C 465.609985 574.070007 465.849976 577.950012 463.359985 580.159973 C 462.470825 580.869873 461.451843 581.39978 460.359985 581.719971 C 454.890015 583.609985 448.98999 583.650024 443.200012 583.830017 C 425.419983 584.400024 407.460022 586.47998 389.940002 583.359985 C 387.799988 582.97998 385.47998 582.359985 384.190002 580.659973 C 382.719971 578.659973 383.140015 575.76001 384.559998 573.72998 C 386.116516 571.800415 388.098145 570.256897 390.349976 569.219971 C 394.809998 566.820007 399.440002 564.780029 404.070007 562.72998 C 404.355896 562.56073 404.694458 562.503723 405.02002 562.570007 C 405.469971 562.719971 405.609985 563.27002 405.72998 563.72998 C 406.539978 567.01001 409.179993 569.599976 412.190002 571.150024 C 412.22998 571.150024 427.73999 574.25 434.400024 572.130005 Z"/>
    <path id="path30" fill="#000000" stroke="none" opacity="0.1" d="M 434.400024 572.130005 C 437.684326 570.952942 440.840515 569.44519 443.820007 567.630005 L 458.890015 559.130005 C 460.251526 558.24823 461.768555 557.633972 463.359985 557.320007 L 465.159973 570.77002 C 465.609985 574.070007 465.849976 577.950012 463.359985 580.159973 C 462.470825 580.869873 461.451843 581.39978 460.359985 581.719971 C 454.890015 583.609985 448.98999 583.650024 443.200012 583.830017 C 425.419983 584.400024 407.460022 586.47998 389.940002 583.359985 C 387.799988 582.97998 385.47998 582.359985 384.190002 580.659973 C 382.719971 578.659973 383.140015 575.76001 384.559998 573.72998 C 386.116516 571.800415 388.098145 570.256897 390.349976 569.219971 C 394.809998 566.820007 399.440002 564.780029 404.070007 562.72998 C 404.355896 562.56073 404.694458 562.503723 405.02002 562.570007 C 405.469971 562.719971 405.609985 563.27002 405.72998 563.72998 C 406.539978 567.01001 409.179993 569.599976 412.190002 571.150024 C 412.22998 571.150024 427.73999 574.25 434.400024 572.130005 Z"/>
    <path id="path31" fill="#fda8a8" stroke="none" d="M 414.200012 590.349976 C 416.409973 592.349976 419.789978 592.299988 422.789978 592.080017 L 436.460022 591.080017 C 447.320007 590.280029 458.549988 589.380005 468.130005 584.210022 C 469.143921 583.746277 470.042236 583.063171 470.76001 582.210022 C 471.521545 580.901917 471.91864 579.413635 471.909973 577.900024 C 473.203979 563.088318 476.148865 548.46759 480.690002 534.309998 C 486.690002 515.460022 495.690002 496.880005 495.570007 477.150024 C 495.570007 476.669983 495.570007 476.150024 495.570007 475.719971 C 495.400024 469.539978 494.309998 463.429993 493.640015 457.280029 C 492.530029 446.98999 492.640015 436.619995 492.719971 426.280029 C 492.63446 422.226257 492.915588 418.173096 493.559998 414.169983 C 494.190002 410.919983 496.559998 407.659973 495.109985 404.799988 C 492.299988 399.25 482.109985 397.210022 476.630005 397.01001 C 469.25 396.75 461.98999 398.679993 454.859985 400.599976 C 452.690002 401.190002 450.419983 401.820007 448.780029 403.349976 C 446.580017 405.409973 445.950012 408.640015 445.869995 411.650024 C 445.48999 425 453.179993 437.419983 453.789978 450.75 C 453.900024 453.150024 453.789978 455.75 455.190002 457.75 C 456.113525 458.839111 457.116272 459.858582 458.190002 460.799988 C 461.190002 464.090027 461.280029 469.049988 461.070007 473.51001 C 460.97998 475.309998 460.880005 477.109985 460.76001 478.909973 C 459.126465 502.933533 454.27301 526.628784 446.330017 549.359985 C 445.56427 551.786926 444.559387 554.131775 443.330017 556.359985 C 441.323608 559.487976 438.816895 562.264954 435.909973 564.580017 C 431.791016 568.097595 427.378174 571.255798 422.719971 574.02002 C 419.609985 575.859985 416.289978 577.619995 414.159973 580.539978 C 412.030029 583.460022 411.559998 587.890015 414.200012 590.349976 Z"/>
    <path id="path32" fill="#eeeff3" stroke="none" d="M 414.200012 590.349976 C 416.409973 592.349976 419.789978 592.299988 422.789978 592.080017 L 436.460022 591.080017 C 447.320007 590.280029 458.549988 589.380005 468.130005 584.210022 C 469.143921 583.746277 470.042236 583.063171 470.76001 582.210022 C 471.521545 580.901917 471.91864 579.413635 471.909973 577.900024 C 473.203979 563.088318 476.148865 548.46759 480.690002 534.309998 C 486.690002 515.460022 495.690002 496.880005 495.570007 477.150024 C 484.012207 478.427979 472.387451 479.00238 460.76001 478.869995 C 459.126465 502.893555 454.27301 526.588806 446.330017 549.320007 C 445.56427 551.746948 444.559387 554.091797 443.330017 556.320007 C 441.323608 559.447937 438.816895 562.224976 435.909973 564.539978 C 431.791016 568.057617 427.378174 571.21582 422.719971 573.97998 C 419.609985 575.820007 416.289978 577.580017 414.159973 580.5 C 412.030029 583.419983 411.559998 587.890015 414.200012 590.349976 Z"/>
    <path id="path33" fill="#bbbdc8" stroke="none" d="M 444.400024 586.130005 C 447.684326 584.952942 450.840515 583.44519 453.820007 581.630005 L 468.890015 573.130005 C 470.251526 572.24823 471.768555 571.633972 473.359985 571.320007 L 475.159973 584.77002 C 475.609985 588.070007 475.849976 591.950012 473.359985 594.159973 C 472.470825 594.869873 471.451843 595.39978 470.359985 595.719971 C 464.890015 597.609985 458.98999 597.650024 453.200012 597.830017 C 435.419983 598.400024 417.460022 600.47998 399.940002 597.359985 C 397.799988 596.97998 395.47998 596.359985 394.190002 594.659973 C 392.719971 592.659973 393.140015 589.76001 394.559998 587.72998 C 396.116516 585.800415 398.098145 584.256897 400.349976 583.219971 C 404.809998 580.820007 409.440002 578.780029 414.070007 576.72998 C 414.355896 576.56073 414.694458 576.503723 415.02002 576.570007 C 415.469971 576.719971 415.609985 577.27002 415.72998 577.72998 C 416.539978 581.01001 419.179993 583.599976 422.190002 585.150024 C 422.22998 585.150024 437.73999 588.25 444.400024 586.130005 Z"/>
    <path id="path34" fill="#fda8a8" stroke="none" d="M 394.809998 184.709991 C 399.679993 178.709991 399.809998 170.329987 399.690002 162.630005 C 399.690002 159.630005 399.599976 156.529999 399.48999 153.480011 L 399.48999 153.410004 C 399.354858 147.804474 398.762939 142.219299 397.719971 136.709991 L 397.719971 136.709991 C 397.19397 134.066254 396.492432 131.46048 395.619995 128.910004 C 396.280029 128.76001 396.940002 128.619995 397.619995 128.5 C 408.102112 126.429993 418.887878 126.429993 429.369995 128.5 C 431.179993 128.859985 435.76001 128.779999 438.369995 129.670013 C 439.113037 129.847443 439.760376 130.301666 440.179993 130.940002 C 440.690002 132.01001 439.640015 135.109985 438.880005 137.859985 L 438.880005 137.859985 C 438.462158 139.099396 438.226379 140.392883 438.179993 141.700012 C 438.281128 142.928253 438.468262 144.147919 438.73999 145.350006 C 439.210022 147.559998 439.830017 149.75 440.119995 151.98999 C 440.630005 155.809998 440.179993 159.700012 440.429993 163.549988 C 440.679993 167.399994 441.789978 171.450012 444.719971 173.959991 C 427.695862 175.419525 410.925476 179.031647 394.809998 184.709991 Z"/>
    <path id="path35" fill="#000000" stroke="none" opacity="0.1" d="M 442.72998 144.910004 C 441.400024 145.019989 440.080017 145.149994 438.72998 145.299988 C 425.409912 146.722076 412.264893 149.468994 399.48999 153.5 L 399.48999 153.429993 L 397.719971 136.730011 L 397.719971 136.730011 C 397.719971 135.730011 397.719971 134.730011 397.719971 133.679993 C 397.719971 131.970001 397.669983 130.23999 397.630005 128.519989 C 408.112122 126.449951 418.897888 126.449951 429.380005 128.519989 C 431.190002 128.880005 435.77002 128.799988 438.380005 129.690002 C 438.380005 131.320007 438.380005 132.950012 438.440002 134.579987 C 438.505676 135.68985 438.656128 136.793091 438.890015 137.880005 L 438.890015 137.880005 C 439.368408 140.579651 440.717041 143.048584 442.72998 144.910004 Z"/>
    <path id="path36" fill="#fda8a8" stroke="none" d="M 454.5 112.5 C 454.5 132.93454 437.934509 149.5 417.5 149.5 C 397.065491 149.5 380.5 132.93454 380.5 112.5 C 380.5 92.06543 397.065491 75.5 417.5 75.5 C 437.934509 75.5 454.5 92.06543 454.5 112.5 Z"/>
    <path id="path37" fill="#f75842" stroke="none" d="M 385 252.01001 C 378.429993 228.76001 384.429993 203.790009 400.119995 185.429993 C 403.609985 181.339996 407.119995 177.140015 411.700012 174.690002 C 417.150024 171.790009 423.599976 171.690002 429.77002 171.630005 C 435.219971 171.630005 440.840027 171.630005 445.849976 173.799988 C 452.619995 176.690002 457.289978 182.970001 461.22998 189.200012 C 465.429993 195.839996 469.22998 203.029999 469.869995 210.869995 C 470.210022 215.519989 469.390015 220.23999 470.080017 224.869995 C 470.960022 230.73999 474.22998 236 475.570007 241.779999 C 476.299988 244.899994 476.450012 248.130005 476.919983 251.309998 C 477.628174 255.660187 478.657654 259.951935 480 264.149994 C 489.935974 297.140533 503.541016 328.912476 520.559998 358.869995 C 525.559998 367.700012 530.909973 376.429993 534.27002 386 C 535.789978 390.330017 536.890015 395 535.650024 399.460022 C 533.580017 406.859985 524.22998 411.210022 517.23999 408.02002 C 517.775513 409.721558 516.949524 411.554199 515.320007 412.280029 C 513.65802 413.030212 511.841064 413.373047 510.02002 413.280029 L 448.26001 414.919983 C 446.637756 414.960876 445.024902 415.178833 443.450012 415.570007 C 436.190002 417.429993 438.919983 420.570007 438.140015 423.190002 C 437.190002 426.390015 432.599976 426.130005 429.400024 425.190002 C 429.890015 429.859985 430 435.570007 423.969971 436.929993 C 422.405823 437.247009 420.789124 437.1922 419.25 436.77002 C 408.307861 433.951355 396.962097 433.038025 385.710022 434.070007 C 381.590027 434.450012 376.880005 434.909973 373.830017 432.070007 C 371.530029 429.960022 370.929993 426.599976 370.539978 423.5 C 364.390015 374.5 377.039978 325.429993 386.539978 277.019989 C 387.820007 270.48999 387.359985 259.910004 385.440002 253.529999 Z"/>
    <path id="path38" fill="#6c63ff" stroke="none" d="M 467 218.23999 C 468.450012 222.420013 470.26001 226.529999 470.75 230.929993 C 471.140015 234.450012 470.669983 238.01001 470.880005 241.540009 C 471.263489 245.459259 472.071533 249.325256 473.289978 253.070007 C 475.215149 260.353302 477.589722 267.510345 480.400024 274.5 C 481.73999 277.649994 483.289978 281.119995 482.210022 284.369995 C 481.130005 287.619995 477.780029 289.630005 476.820007 292.859985 C 475.820007 296.269989 477.820007 299.859985 480.369995 302.350006 C 482.919983 304.839996 486.109985 306.609985 488.469971 309.26001 C 491.039978 312.149994 492.469971 315.839996 494.280029 319.26001 C 496.850159 323.783447 499.797241 328.08197 503.090027 332.109985 L 515.179993 347.799988 C 515.933777 348.931274 516.923035 349.886353 518.080017 350.599976 C 522.080017 352.679993 526.27002 348.48999 530.340027 346.599976 C 535.73999 344.030029 542.059998 345.539978 548.030029 345.969971 C 554 346.400024 561.190002 344.849976 563.320007 339.27002 C 564.025208 337.005371 564.172729 334.603882 563.75 332.27002 C 562.814331 324.290894 560.50708 316.533447 556.929993 309.339996 C 554.75 304.959991 552.090027 300.769989 550.719971 296.079987 C 549.599976 292.269989 549.380005 288.26001 548.48999 284.390015 C 547.599976 280.519989 546.030029 276.820007 544.77002 273.040009 C 535.830017 246.179993 542.549988 216.790009 539.659973 188.630005 C 538.590027 178.23999 535.419983 166.850006 526.47998 161.440002 C 521.169983 158.230011 514.789978 157.730011 508.47998 157.440002 L 505.630005 157.309998 L 501.039978 157.079987 C 494.400024 156.75 487.73999 156.5 481.27002 157.910004 C 472.169983 159.910004 461.219971 166.980011 460.859985 177.140015 C 460.468689 191.094788 462.547363 205.008881 467 218.23999 Z"/>
    <path id="path39" fill="#000000" stroke="none" opacity="0.1" d="M 501.090027 157.040009 C 502.317261 163.844543 502.929749 170.745697 502.919983 177.660004 C 503.099976 197.399994 505.22998 217.059998 507.369995 236.660004 L 508.780029 249.660004 C 509.039978 252.059998 509.349976 254.579987 510.780029 256.51001 C 512.210022 258.440002 515.210022 259.450012 517.099976 257.959991 C 518.26001 253.369995 518.030029 248.549988 517.799988 243.820007 C 517.299988 233.76001 516.803345 223.696686 516.309998 213.630005 C 515.830017 203.829987 515.309998 194.019989 514.119995 184.279999 C 513.186584 176.735779 511.810852 169.252899 510 161.869995 C 509.656738 160.340576 509.178162 158.844696 508.570007 157.399994 L 505.719971 157.269989 Z"/>
    <path id="path40" fill="#6c63ff" stroke="none" d="M 435.75 165.5 C 429.619995 164.619995 423.200012 164.170013 417.380005 166.299988 C 411.820007 168.350006 407.380005 172.559998 403.380005 176.98999 C 400.65271 179.844635 398.397766 183.115662 396.700012 186.679993 C 393.289978 194.519989 394.619995 203.559998 396.700012 211.859985 C 402.369995 234.720001 413.630005 256.769989 431.700012 271.859985 C 437.200745 276.329346 443.056824 280.342651 449.210022 283.859985 C 457.210022 288.549988 465.469971 292.859985 474.320007 295.570007 C 476.789978 296.329987 479.419983 296.970001 481.950012 296.429993 C 484.47998 295.890015 486.869995 293.839996 486.950012 291.25 C 472.450012 283.100006 459.450012 272.570007 446.539978 262.089996 C 443.00116 259.360016 439.687195 256.350372 436.630005 253.089996 C 432.049988 247.940002 428.820007 241.720001 424.380005 236.450012 C 420.380005 231.720001 415.380005 227.730011 412.380005 222.320007 C 410.497253 218.625214 409.237 214.645081 408.650024 210.540009 C 407.169983 202.170013 406.890015 193.279999 410.210022 185.450012 C 413.530029 177.619995 421.140015 171.190002 429.640015 171.329987 C 434 171.399994 438.150024 173.130005 442.169983 174.820007 L 467.469971 185.5 C 467.159973 185.359985 468.919983 180.970001 468.840027 180.359985 C 468.599976 178.450012 468.26001 178.420013 466.840027 176.970001 C 464.419983 174.549988 460.659973 172.850006 457.590027 171.440002 C 450.632202 168.423828 443.276978 166.423401 435.75 165.5 Z"/>
    <path id="path41" fill="#ffd566" stroke="none" d="M 385.390015 105.5 C 392.608154 103.896301 399.288208 100.451172 404.780029 95.5 L 399.48999 123.26001 C 404.759827 120.841125 409.870178 118.088867 414.789978 115.019958 C 415.5 127.719971 414.469971 140.709991 409.789978 152.529999 C 405.109985 164.350006 396.47998 174.929993 384.900024 180.179993 C 395.179993 181.899994 404.409973 174.519989 413.559998 169.529999 C 419.940002 166.059998 430.840027 169.630005 437.820007 167.529999 C 443.73999 165.790009 449.820007 164.269989 455.159973 161.160004 C 465.080017 155.369995 467.330017 138.459991 469.340027 127.159973 C 471.349976 115.859985 469.52002 104.160034 466.179993 93.160034 C 465.06842 89.264343 463.564026 85.491638 461.690002 81.900024 C 456.481995 72.364197 447.519592 65.444336 436.976379 62.818481 C 426.433167 60.192627 415.272095 62.100708 406.200012 68.079956 C 396.97998 74.150024 388.429993 83.079956 381.390015 91.549988 C 380.390015 92.719971 376.26001 96.880005 377.630005 98.630005 C 379.299988 100.75 389.099976 94.709961 390.76001 93.890015 C 390.280029 95.700012 387.299988 105.030029 385.390015 105.5 Z"/>
    <g id="Gruppo" opacity="0.1">
        <path id="path42" fill="#000000" stroke="none" d="M 427 428.929993 C 425.435852 429.247009 423.819092 429.1922 422.280029 428.77002 C 411.337891 425.951355 399.992126 425.038025 388.73999 426.070007 C 384.619995 426.450012 379.909973 426.909973 376.859985 424.070007 C 374.559998 421.960022 373.960022 418.599976 373.570007 415.5 C 367.419983 366.5 380.070007 317.429993 389.570007 269.019989 C 390.849976 262.48999 390.390015 251.910004 388.469971 245.529999 L 388.02002 243.980011 C 384.318115 230.759552 384.536987 216.748352 388.650024 203.649994 C 381.827454 218.850189 380.536194 235.957947 385 252.01001 L 385.450012 253.559998 C 387.369995 259.940002 387.830017 270.559998 386.549988 277.049988 C 377.080017 325.460022 364.429993 374.559998 370.549988 423.530029 C 370.940002 426.630005 371.549988 429.98999 373.840027 432.099976 C 376.840027 434.909973 381.599976 434.450012 385.719971 434.099976 C 396.972107 433.067993 408.317871 433.981384 419.26001 436.799988 C 420.799072 437.222229 422.415833 437.277039 423.97998 436.960022 C 428.900024 435.849976 429.72998 431.840027 429.609985 427.869995 C 428.811218 428.378235 427.926941 428.737366 427 428.929993 Z"/>
        <path id="path43" fill="#000000" stroke="none" d="M 520.26001 400.02002 C 520.795471 401.721558 519.969543 403.554199 518.340027 404.280029 C 516.67804 405.030212 514.861084 405.373047 513.039978 405.280029 L 451.280029 406.919983 C 449.657776 406.960876 448.044861 407.178833 446.469971 407.570007 C 439.210022 409.429993 441.940002 412.570007 441.159973 415.190002 C 440.210022 418.390015 435.619995 418.130005 432.419983 417.190002 C 432.719971 420.039978 432.869995 423.27002 431.580017 425.669983 C 434.390015 426.090027 437.409973 425.719971 438.159973 423.190002 C 438.909973 420.659973 436.210022 417.429993 443.469971 415.570007 C 445.044861 415.178833 446.657776 414.960876 448.280029 414.919983 L 510 413.280029 C 511.821045 413.373047 513.638062 413.030212 515.299988 412.280029 C 516.929504 411.554199 517.755493 409.721558 517.219971 408.02002 C 524.219971 411.210022 533.559998 406.859985 535.630005 399.460022 C 535.941833 398.338562 536.116455 397.183472 536.150024 396.02002 C 532.409973 400.5 525.640015 402.5 520.26001 400.02002 Z"/>
    </g>
    <path id="path44" fill="#fda8a8" stroke="none" d="M 437.409973 191.059998 C 442.722046 202.35437 447.418884 213.927979 451.47998 225.730011 C 454.76001 235.23999 457.650024 245.230011 456.559998 255.230011 C 455.469971 265.230011 449.559998 275.329987 439.960022 278.480011 C 435.880005 279.820007 431.51001 279.829987 427.219971 279.929993 C 416.944458 280.171173 406.691101 280.999207 396.51001 282.410004 C 391.771606 283.193726 386.994873 283.724457 382.200012 284 C 375.419983 284.220001 368.640015 283.160004 361.880005 283.709991 C 350.940002 284.600006 340.549988 289.709991 329.570007 289.709991 C 328.230652 289.792725 326.891479 289.545502 325.669983 288.98999 C 323.669983 287.910004 322.780029 285.570007 322.099976 283.410004 C 320.570007 278.529999 319.369995 272.929993 321.960022 268.519989 C 325.150024 263.089996 332.400024 262 338.690002 261.519989 C 352.849976 260.519989 367.026672 259.820007 381.219971 259.420013 C 393.330017 259.079987 406.450012 258.619995 415.840027 250.959991 C 416.47345 250.507111 416.990845 249.910889 417.349976 249.220001 C 417.704529 248.049286 417.662292 246.79425 417.22998 245.649994 C 413.508118 231.106598 411.91156 216.100952 412.48999 201.100006 C 412.425659 199.754456 412.774658 198.421448 413.48999 197.279999 C 414.339783 196.364624 415.443665 195.723907 416.659973 195.440002 C 425.043701 192.749939 434.019714 192.500214 442.539978 194.720001"/>
    <path id="path45" fill="#f75842" stroke="none" d="M 412.23999 201.089996 C 410.788879 201.589233 409.525513 202.521057 408.619995 203.76001 C 409.02002 199.589996 408.47998 195.380005 408.559998 191.179993 C 408.640015 186.980011 409.419983 182.600006 412.070007 179.339996 C 415.440002 175.179993 421.169983 173.690002 426.530029 173.549988 C 434.309998 173.339996 442.359985 175.600006 448.059998 180.899994 C 451.728882 184.335083 454.111023 188.922852 454.809998 193.899994 C 454.98999 195.269989 455.590027 200.410004 454.159973 201.290009 C 452.909973 202.070007 448.159973 199.380005 446.630005 198.950012 C 435.270081 195.611298 423.098389 196.368713 412.23999 201.089996 Z"/>
    <path id="path46" fill="#6c63ff" stroke="none" opacity="0.1" d="M 315 93 C 315 96.865967 311.865967 100 308 100 C 304.134033 100 301 96.865967 301 93 C 301 89.134033 304.134033 86 308 86 C 311.865967 86 315 89.134033 315 93 Z"/>
    <path id="path47" fill="#6c63ff" stroke="none" opacity="0.1" d="M 254 14 C 254 17.865967 250.865997 21 247 21 C 243.134003 21 240 17.865967 240 14 C 240 10.134033 243.134003 7 247 7 C 250.865997 7 254 10.134033 254 14 Z"/>
    <path id="path48" fill="#6c63ff" stroke="none" opacity="0.1" d="M 388 14 C 388 17.865967 384.865967 21 381 21 C 377.134033 21 374 17.865967 374 14 C 374 10.134033 377.134033 7 381 7 C 384.865967 7 388 10.134033 388 14 Z"/>
</svg>
